<?xml version="1.0" encoding="UTF-8" standalone="no"?>
<!DOCTYPE svg PUBLIC "-//W3C//DTD SVG 1.1//EN" "http://www.w3.org/Graphics/SVG/1.1/DTD/svg11.dtd">
<svg width="100%" height="100%" viewBox="0 0 95 81" version="1.1" xmlns="http://www.w3.org/2000/svg" xmlns:xlink="http://www.w3.org/1999/xlink" xml:space="preserve" xmlns:serif="http://www.serif.com/" style="fill-rule:evenodd;clip-rule:evenodd;stroke-linejoin:round;stroke-miterlimit:2;">
    <g id="cadmapper-adobeillustrator" transform="matrix(0.903037,0,0,0.903037,4.56401,4.48862)">
        <path id="Vector" d="M47.932,62.389L21.697,62.389L16.34,78.954C16.197,79.586 15.636,80.016 15.004,79.944L1.737,79.944C0.962,79.944 0.747,79.527 0.962,78.68L23.677,13.325C23.892,12.622 24.095,11.846 24.381,11C24.668,9.521 24.799,7.97 24.799,6.42C24.727,6.062 25.014,5.716 25.36,5.645L43.625,5.645C44.186,5.645 44.472,5.86 44.544,6.205L70.278,78.811C70.493,79.586 70.278,79.944 69.574,79.944L54.84,79.944C54.351,80.016 53.85,79.658 53.706,79.169L47.92,62.389L47.932,62.389ZM25.789,48.078L43.697,48.078C43.279,46.599 42.707,44.834 42.074,42.997C41.442,41.089 40.81,39.05 40.165,36.939C39.461,34.756 38.829,32.633 38.125,30.451C37.421,28.269 36.789,26.217 36.216,24.178C35.656,22.21 35.155,20.374 34.665,18.68L34.522,18.68C33.89,21.709 33.114,24.738 32.124,27.768C31.062,31.155 30.013,34.673 28.879,38.203C27.889,41.793 26.839,45.108 25.777,48.066L25.789,48.078ZM86.002,17.976C83.676,18.048 81.421,17.13 79.727,15.508C78.104,13.743 77.257,11.417 77.329,9.02C77.257,6.623 78.176,4.369 79.87,2.747C81.564,1.125 83.819,0.29 86.145,0.29C88.901,0.29 91.013,1.137 92.564,2.759C94.115,4.452 94.962,6.706 94.89,9.032C94.962,11.429 94.115,13.755 92.421,15.52C90.798,17.213 88.4,18.131 86.002,17.988L86.002,17.976ZM78.104,79.169L78.104,24.894C78.104,24.19 78.391,23.904 79.023,23.904L92.981,23.904C93.614,23.904 93.9,24.261 93.9,24.894L93.9,79.169C93.9,79.944 93.614,80.302 92.981,80.302L79.166,80.302C78.462,80.302 78.104,79.885 78.104,79.169Z" style="fill:rgb(79,0,246);fill-rule:nonzero;"/>
    </g>
</svg>
