<svg width="88" height="95" viewBox="0 0 88 95" fill="none" xmlns="http://www.w3.org/2000/svg">
<g id="cadmapper-sketchup" clip-path="url(#clip0_371_383)">
<path id="Vector" d="M66.3801 70.42L57.0901 75.75V70.75L64.3201 66.61C69.0001 63.24 72.0801 57.9 72.3401 51.83V51.79L72.3101 29.31L52.5801 17.96C50.3301 16.71 47.6601 15.98 44.8101 15.98C44.5901 15.98 44.3701 15.98 44.1601 15.99H44.1901C43.9901 15.99 43.7501 15.98 43.5101 15.98C40.7201 15.98 38.0901 16.66 35.7701 17.85L35.8601 17.81L28.9301 21.79L24.5601 19.26L34.1301 13.79C36.8801 12.47 40.1101 11.71 43.5301 11.71C43.7501 11.71 43.9701 11.71 44.1901 11.71H44.1601C47.8801 11.74 51.4001 12.56 54.5601 14.02L54.4101 13.95L76.6801 26.82L76.6501 51.35C76.4901 59.24 72.4901 66.17 66.4401 70.35L66.3601 70.4L66.3801 70.42ZM41.1601 28.81C42.0401 28.67 43.0401 28.59 44.0701 28.59C47.3001 28.59 50.3401 29.39 53.0101 30.79L52.9101 30.74L61.4601 35.67C61.4601 35.67 61.4701 39.99 61.4701 46.45C61.0301 50.49 59.4501 54.1 57.0601 57.02L57.0901 56.98V38L41.1601 28.8V28.81ZM87.5801 20.61L56.8001 2.85999C53.2801 1.05999 49.1201 -9.76585e-06 44.7101 -9.76585e-06C44.5101 -9.76585e-06 44.3101 -9.76585e-06 44.1001 -9.76585e-06H44.1301C43.8801 -9.76585e-06 43.6001 -0.0100098 43.3101 -0.0100098C38.9301 -0.0100098 34.8101 1.07999 31.2001 3.00999L31.3401 2.93999L2.83014 19.27L46.2101 44.2V94.58L74.7601 78.28C78.5001 75.88 81.5401 72.68 83.6701 68.9L83.7401 68.77C85.7001 65.43 87.0601 61.51 87.5701 57.32V57.17L87.5901 20.6L87.5801 20.61ZM0.640137 35.58L31.0501 53.03L31.0301 58.23L13.7301 48.31L2.84014 54.5L31.0001 70.73L31.0201 75.73L0.850137 58.37C1.69014 63.37 3.61014 67.81 6.36014 71.61L6.30014 71.52C8.34014 74.37 10.9001 76.72 13.8501 78.46L13.9601 78.52L41.8501 94.58V46.7L0.660137 23.04L0.640137 35.58Z" fill="#4F00F6"/>
</g>
<defs>
<clipPath id="clip0_371_383">
<rect width="86.94" height="94.58" fill="white" transform="translate(0.640137)"/>
</clipPath>
</defs>
</svg>
