<svg width="70" height="88" viewBox="0 0 70 88" fill="none" xmlns="http://www.w3.org/2000/svg">
<g id="cadmapper-autocad " clip-path="url(#clip0_371_380)">
<g id="2069a460dcf28295e231f3111e03dc98">
<path id="Vector" fill-rule="evenodd" clip-rule="evenodd" d="M0.61 85.8C0.61 85.8 0.77 85.5 1.51 84.48C2.97 82.47 5.17 80.96 5.89 80.49L20.77 78.61C19.45 79.88 18.39 81.48 20.96 81.8C32.11 83.21 48.66 76.94 55.17 74.22V74.37L67.15 73.3C61.35 76.21 46.81 81.98 15.41 87.11C1.44 89.4 0.45 86.07 0.44 86.05M15.79 0.650024L27.9 2.06002L69.64 70.12L56.94 71.25L50.08 59.15L23.73 60.77L22.9 75.37L7.06 77.37L15.79 0.650024ZM24.2 47.37L42.69 46.91L25.58 16.86H25.12L24.2 47.37ZM3.99 78.2L12.7 1.61002C12.66 1.74002 12.64 1.83002 12.64 1.83002L0 81.65C1.44 80.02 3.1 78.8 3.99 78.2Z" fill="#4F00F6"/>
</g>
</g>
<defs>
<clipPath id="clip0_371_380">
<rect width="69.64" height="87.28" fill="white" transform="translate(0 0.650024)"/>
</clipPath>
</defs>
</svg>
