<svg width="91" height="90" viewBox="0 0 91 90" fill="none" xmlns="http://www.w3.org/2000/svg">
<g id="cadmapper-rhino" clip-path="url(#clip0_371_385)">
<path id="Vector" d="M85.0805 14.9449C84.7105 19.1749 85.1305 22.9349 84.2305 26.6849C83.1405 31.2449 81.4405 35.6049 78.8105 39.2649C75.5005 43.8749 70.9205 47.4449 65.4805 49.4949C64.1005 50.0149 60.7405 50.2549 60.7405 50.2549V26.4549L40.9405 45.9349C29.7405 40.8749 24.1605 31.9349 23.1005 19.9949H39.8405C39.5805 15.7949 36.3405 10.7449 29.9705 7.99493L20.8105 14.3449H11.1305L11.0005 0.554932C11.0005 0.554932 10.3105 0.554932 10.0905 0.614932C4.84051 1.83493 0.530509 7.79493 0.580509 13.3949C0.770509 34.3949 0.660509 55.4049 0.660509 76.4149V79.2649L62.6405 90.0049C70.5905 88.5749 73.4905 85.4649 76.5305 80.3249C78.5405 76.9249 79.3505 72.5049 79.3505 68.5349L79.3305 61.6949C95.0705 40.8849 92.4005 26.4149 85.0805 14.9549V14.9449ZM42.5805 67.9849C40.7005 67.9849 39.1705 66.4549 39.1705 64.5749C39.1705 62.6949 40.7005 61.1649 42.5805 61.1649C44.4605 61.1649 45.9905 62.6949 45.9905 64.5749C45.9905 66.4549 44.4605 67.9849 42.5805 67.9849Z" fill="#4F00F6"/>
</g>
<defs>
<clipPath id="clip0_371_385">
<rect width="90.31" height="89.43" fill="white" transform="translate(0.580078 0.574951)"/>
</clipPath>
</defs>
</svg>
