<svg xmlns="http://www.w3.org/2000/svg" width="150" height="17" viewBox="0 0 150 17" fill="none">
<path d="M0 8.49989C0 6.83531 0.332303 5.35666 0.99691 4.07281C1.66152 2.78895 2.60596 1.78843 3.82149 1.0801C5.03702 0.36291 6.45368 0.00874329 8.05398 0.00874329C9.47939 0.00874329 10.6862 0.247806 11.6743 0.734785C12.6625 1.22176 13.3971 1.85041 13.8868 2.61187L14.0267 2.85979C14.1491 3.09885 14.2453 3.35562 14.3065 3.62124C14.3677 3.89572 14.4027 4.14364 14.4027 4.37385C14.4027 4.74572 14.3153 5.08218 14.1404 5.38322C13.9655 5.68426 13.7294 5.91447 13.4495 6.0827C13.1697 6.25093 12.8724 6.33062 12.5663 6.33062C12.2602 6.33062 11.9804 6.26864 11.7006 6.15354C11.4207 6.03843 11.1671 5.78166 10.931 5.39208C10.6687 4.96708 10.3276 4.61291 9.90788 4.32072C9.48813 4.02853 8.86725 3.88687 8.04524 3.88687C7.22322 3.88687 6.58485 4.07281 6.01644 4.45354C5.44802 4.83426 5.01953 5.36551 4.73095 6.06499C4.44237 6.75562 4.29371 7.56135 4.29371 8.48218C4.29371 9.40301 4.44237 10.1999 4.73095 10.8994C5.01953 11.59 5.44802 12.1301 6.01644 12.5108C6.58485 12.8916 7.2582 13.0775 8.04524 13.0775C8.83227 13.0775 9.48813 12.9358 9.90788 12.6436C10.3276 12.3515 10.6687 11.9973 10.931 11.5723C11.1671 11.1827 11.4207 10.9259 11.7006 10.8108C11.9717 10.6957 12.2602 10.6337 12.5663 10.6337C12.8724 10.6337 13.1697 10.7134 13.4495 10.8817C13.7294 11.0499 13.9655 11.2801 14.1404 11.5811C14.3153 11.8822 14.4027 12.2186 14.4027 12.5905C14.4027 12.8207 14.3677 13.0686 14.3065 13.3431C14.2453 13.6176 14.1491 13.8655 14.0267 14.1046L13.8868 14.3525C13.3971 15.114 12.6625 15.7426 11.6743 16.2296C10.6862 16.7166 9.47939 16.9556 8.05398 16.9556C6.44493 16.9556 5.03702 16.6015 3.82149 15.8843C2.60596 15.1671 1.66152 14.1754 0.99691 12.8916C0.332303 11.6077 0 10.1291 0 8.46447L0 8.49989Z" fill="#4F00F6"/>
<path d="M24.4153 0.00885417L25.8058 2.16042L20.725 15.5568C20.5501 16.0083 20.2878 16.3625 19.938 16.6193C19.5882 16.876 19.2034 17 18.7837 17C18.3639 17 17.9879 16.9026 17.6643 16.7167C17.3408 16.5219 17.0959 16.2828 16.921 15.9729C16.7461 15.6719 16.6587 15.362 16.6587 15.0432C16.6587 14.8484 16.6849 14.6448 16.7374 14.4323C16.7899 14.2286 16.8773 13.963 16.9823 13.6531L21.9406 1.75312C22.2029 1.12448 22.5177 0.672917 22.9025 0.407292C23.2873 0.141667 23.7945 0.00885417 24.4241 0.00885417H24.4153ZM24.4153 0.00885417C25.045 0.00885417 25.5522 0.141667 25.9369 0.407292C26.3217 0.672917 26.6365 1.12448 26.8989 1.75312L31.8397 13.6443C31.9534 13.9542 32.0321 14.2109 32.0846 14.4234C32.137 14.6271 32.1633 14.8307 32.1633 15.0344C32.1633 15.3531 32.0758 15.663 31.9009 15.9641C31.726 16.2651 31.4812 16.513 31.1576 16.7078C30.834 16.9026 30.458 16.9911 30.0383 16.9911C29.6185 16.9911 29.2337 16.8672 28.884 16.6104C28.5342 16.3536 28.2718 16.0083 28.0969 15.5479L23.0162 2.15156L24.4066 0L24.4153 0.00885417Z" fill="#4F00F6"/>
<path d="M41.3629 0.247914C43.0157 0.247914 44.4411 0.584372 45.6479 1.24843C46.8546 1.9125 47.7641 2.86875 48.4025 4.10833C49.0321 5.34791 49.3557 6.80885 49.3557 8.49114C49.3557 10.1734 49.0409 11.6255 48.4025 12.8651C47.7641 14.1047 46.8459 15.0698 45.6479 15.7338C44.4498 16.3979 43.0244 16.7344 41.3716 16.7344H37.1392C36.4571 16.7344 35.9411 16.5307 35.6088 16.1146C35.2765 15.7073 35.1104 15.1229 35.1104 14.3615V2.61198C35.1104 1.85052 35.2765 1.275 35.6088 0.858851C35.9411 0.451559 36.4571 0.239059 37.1392 0.239059H41.3716L41.3629 0.247914ZM41.3629 12.9979C42.1937 12.9979 42.8845 12.8208 43.4354 12.4578C43.9863 12.0948 44.3886 11.5812 44.651 10.9172C44.9133 10.2443 45.0445 9.43854 45.0445 8.5C45.0445 7.56145 44.9133 6.73802 44.651 6.07395C44.3886 5.40104 43.9776 4.89635 43.4354 4.53333C42.8845 4.17916 42.1937 4.00208 41.3629 4.00208H39.1854V12.9979H41.3629Z" fill="#4F00F6"/>
<path d="M54.9609 16.9911C54.2788 16.9911 53.7629 16.7875 53.4306 16.3714C53.0983 15.9641 52.9321 15.3797 52.9321 14.6182V2.37292C52.9321 1.61146 53.0983 1.03594 53.4306 0.619792C53.7629 0.2125 54.2788 0 54.9609 0L57.0422 2.36406V14.6094C57.0422 15.3708 56.876 15.9464 56.535 16.3625C56.194 16.7698 55.6693 16.9823 54.9609 16.9823V16.9911ZM61.5283 12.688C61.1698 12.688 60.8637 12.626 60.6188 12.5021C60.374 12.3781 60.1641 12.2099 59.9717 11.9885C59.7881 11.7672 59.5257 11.4219 59.2022 10.9526C59.2022 10.9349 59.1847 10.926 59.1759 10.9083C59.1672 10.8995 59.1497 10.8818 59.1497 10.8641L53.8066 3.11667L54.9609 0.00885417C55.337 0.00885417 55.6518 0.0708333 55.9141 0.194792C56.1677 0.31875 56.4038 0.504687 56.6224 0.74375C56.8411 0.982812 57.1209 1.35469 57.4707 1.85052L63.0936 10.0583L61.537 12.688H61.5283ZM61.5283 12.688L59.9717 10.0583L65.5946 1.85052C65.9357 1.36354 66.2155 1.00052 66.4341 0.752604C66.6528 0.504687 66.8976 0.31875 67.1512 0.194792C67.4136 0.0708333 67.7284 0.00885417 68.0957 0.00885417L69.25 3.11667L63.9069 10.8464C63.5483 11.3687 63.2773 11.7406 63.0761 11.9797C62.875 12.2188 62.6564 12.3958 62.4203 12.5109C62.1841 12.626 61.8781 12.688 61.5195 12.688H61.5283ZM68.0957 16.9911C67.4136 16.9911 66.8976 16.7875 66.5653 16.3714C66.233 15.9641 66.0669 15.3797 66.0669 14.6182V2.37292L68.0957 0.00885417C68.804 0.00885417 69.3287 0.2125 69.6697 0.628646C70.0108 1.03594 70.1769 1.62031 70.1769 2.38177V14.6271C70.1769 15.3885 70.0108 15.9641 69.6697 16.3802C69.3287 16.7875 68.804 17 68.0957 17V16.9911Z" fill="#4F00F6"/>
<path d="M80.8719 0.00885417L82.2623 2.16042L77.1816 15.5568C77.0067 16.0083 76.7443 16.3625 76.3945 16.6193C76.0447 16.8672 75.66 17 75.2402 17C74.8205 17 74.4444 16.9026 74.1209 16.7167C73.7973 16.5307 73.5525 16.2828 73.3776 15.9729C73.2027 15.6719 73.1152 15.362 73.1152 15.0432C73.1152 14.8484 73.1415 14.6448 73.1939 14.4323C73.2464 14.2286 73.3339 13.963 73.4388 13.6531L78.3796 1.76198C78.642 1.13333 78.9568 0.681771 79.3416 0.416146C79.7263 0.150521 80.2335 0.0177083 80.8631 0.0177083L80.8719 0.00885417ZM80.8719 0.00885417C81.5015 0.00885417 82.0087 0.141667 82.3935 0.407292C82.7783 0.672917 83.0931 1.12448 83.3554 1.75312L88.2962 13.6443C88.4099 13.9542 88.4886 14.2109 88.5411 14.4234C88.5936 14.6271 88.6198 14.8307 88.6198 15.0344C88.6198 15.3531 88.5324 15.663 88.3575 15.9641C88.1826 16.2651 87.9377 16.513 87.6142 16.7078C87.2906 16.9026 86.9146 16.9911 86.4948 16.9911C86.0751 16.9911 85.6903 16.8672 85.3405 16.6104C84.9907 16.3625 84.7284 16.0083 84.5535 15.5479L79.4727 2.15156L80.8631 0L80.8719 0.00885417Z" fill="#4F00F6"/>
<path d="M97.1553 0.24791C99.394 0.24791 101.073 0.743743 102.21 1.73541C103.347 2.72708 103.915 4.1703 103.915 6.05624C103.915 7.94218 103.347 9.37655 102.21 10.3771C101.073 11.3776 99.394 11.8734 97.1553 11.8734H95.6424V14.6271C95.6424 16.2031 94.9603 16.9911 93.5874 16.9911C92.8878 16.9911 92.3719 16.7875 92.0483 16.3713C91.7247 15.9552 91.5586 15.3797 91.5586 14.6182V2.61197C91.5586 1.03593 92.2319 0.24791 93.5874 0.24791H97.1553ZM96.8929 8.11926C97.8899 8.11926 98.6069 7.95103 99.0267 7.60572C99.4464 7.26041 99.6563 6.74687 99.6563 6.0651C99.6563 5.38333 99.4464 4.86093 99.0267 4.52447C98.6069 4.17916 97.8986 4.01093 96.8929 4.01093H95.6424V8.12812H96.8929V8.11926Z" fill="#4F00F6"/>
<path d="M112.581 0.24791C114.819 0.24791 116.498 0.743743 117.635 1.73541C118.772 2.72708 119.34 4.1703 119.34 6.05624C119.34 7.94218 118.772 9.37655 117.635 10.3771C116.498 11.3776 114.819 11.8734 112.581 11.8734H111.068V14.6271C111.068 16.2031 110.386 16.9911 109.013 16.9911C108.313 16.9911 107.797 16.7875 107.474 16.3713C107.15 15.9641 106.984 15.3797 106.984 14.6182V2.61197C106.984 1.03593 107.657 0.24791 109.013 0.24791H112.581ZM112.318 8.11926C113.315 8.11926 114.032 7.95103 114.452 7.60572C114.872 7.26041 115.082 6.74687 115.082 6.0651C115.082 5.38333 114.872 4.86093 114.452 4.52447C114.032 4.17916 113.324 4.01093 112.318 4.01093H111.068V8.12812H112.318V8.11926Z" fill="#4F00F6"/>
<path d="M131.933 12.9979C132.598 12.9979 133.114 13.1484 133.481 13.4583C133.848 13.7682 134.032 14.2375 134.032 14.8661C134.032 15.4948 133.848 15.9818 133.481 16.2917C133.114 16.6016 132.598 16.7609 131.933 16.7609H124.448C123.766 16.7609 123.25 16.5573 122.917 16.1411C122.585 15.7338 122.419 15.1495 122.419 14.388V2.61198C122.419 1.85052 122.585 1.275 122.917 0.858851C123.25 0.451559 123.766 0.239059 124.448 0.239059H131.933C132.598 0.239059 133.114 0.398434 133.481 0.70833C133.848 1.01823 134.032 1.49635 134.032 2.13385C134.032 2.77135 133.848 3.23177 133.481 3.54166C133.114 3.85156 132.598 4.00208 131.933 4.00208H126.52V6.46354H130.91C131.575 6.46354 132.091 6.62291 132.458 6.93281C132.825 7.25156 133.009 7.72083 133.009 8.34947C133.009 8.97812 132.825 9.44739 132.458 9.75729C132.091 10.0672 131.575 10.2177 130.91 10.2177H126.52V12.9891H131.933V12.9979Z" fill="#4F00F6"/>
<path d="M139.392 16.9911C138.692 16.9911 138.177 16.7875 137.853 16.3713C137.529 15.9552 137.363 15.3797 137.363 14.6182V2.61197C137.363 1.03593 138.037 0.24791 139.392 0.24791C140.748 0.24791 141.447 1.03593 141.447 2.61197V14.6182C141.447 16.1943 140.765 16.9823 139.392 16.9823V16.9911ZM139.392 11.8203V8.06614H143.31C144.106 8.06614 144.7 7.88905 145.102 7.54374C145.496 7.18958 145.697 6.69374 145.697 6.03853C145.697 5.38333 145.496 4.87864 145.102 4.53333C144.709 4.17916 144.106 4.01093 143.31 4.01093H139.392V0.24791H143.196C145.304 0.24791 146.956 0.743743 148.154 1.72656C149.352 2.71822 149.947 4.23228 149.947 6.26874C149.947 8.3052 149.361 9.70416 148.198 10.5542C147.035 11.3953 145.365 11.8203 143.187 11.8203H139.383H139.392ZM147.988 16.9911C147.595 16.9911 147.254 16.9114 146.974 16.7521C146.694 16.5927 146.379 16.3094 146.056 15.8932L141.946 10.8463L145.863 9.55364L149.195 13.237C149.527 13.6 149.746 13.9187 149.842 14.1932C149.947 14.4677 150 14.7687 150 15.1052C150 15.3885 149.921 15.6719 149.772 15.9641C149.615 16.2562 149.387 16.5042 149.09 16.6989C148.793 16.8937 148.425 16.9911 147.997 16.9911H147.988Z" fill="#4F00F6"/>
</svg>