<svg width="198" height="115" viewBox="0 0 198 115" fill="none" xmlns="http://www.w3.org/2000/svg">
<g id="Grid graphic 10km" clip-path="url(#clip0_371_428)">
<g id="Group">
<g id="Clip path group">
<mask id="mask0_371_428" style="mask-type:luminance" maskUnits="userSpaceOnUse" x="0" y="0" width="198" height="115">
<g id="clippath">
<path id="Vector" d="M0 57.5044L98.6737 0L198 57.5044L99.3263 115L0 57.5044Z" fill="white"/>
</g>
</mask>
<g mask="url(#mask0_371_428)">
<g id="Group_2">
<g id="Group_3">
<path id="Vector_2" d="M164.845 76.8151C164.41 77.0681 163.705 77.0681 163.27 76.8151L162.478 76.3613L131.672 94.3107L132.464 94.7645C132.899 95.0175 132.899 95.4276 132.464 95.6807L164.836 76.8151M132.029 19.3194L99.4658 0.453813C99.2569 0.331649 98.9785 0.261841 98.6826 0.261841C98.3867 0.261841 98.0995 0.331649 97.8994 0.453813L0.783405 57.0419C0.574554 57.1641 0.461426 57.3299 0.461426 57.4957C0.461426 57.6615 0.583256 57.8273 0.792107 57.9495L98.5347 114.538C98.7435 114.66 99.022 114.73 99.3178 114.73C99.6137 114.73 99.9009 114.66 100.101 114.538L132.473 95.672C132.038 95.925 131.342 95.925 130.907 95.672L130.115 95.2182L99.3091 113.168L68.3034 95.2182L67.5202 95.672C67.0851 95.925 66.3889 95.925 65.9538 95.672C65.5187 95.4189 65.51 95.0088 65.9451 94.7645L66.7283 94.3107L35.7225 76.3613L34.9393 76.8151C34.5042 77.0681 33.8081 77.0681 33.373 76.8151C32.9378 76.562 32.9291 76.1519 33.3643 75.9076L34.1474 75.4538L3.13299 57.5044L33.9386 39.555L33.1554 39.1013C32.7203 38.8482 32.7116 38.4381 33.1467 38.1938C33.5818 37.9495 34.2867 37.9407 34.7218 38.1938L35.505 38.6475L66.3106 20.6981L65.5274 20.2444C65.0923 19.9913 65.0923 19.5812 65.5274 19.3282C65.9625 19.0751 66.6587 19.0751 67.0938 19.3282L67.877 19.7819L98.6826 1.8238L129.688 19.7732L130.472 19.3194C130.907 19.0664 131.603 19.0664 132.038 19.3194M164.619 38.1851L132.038 19.3194C132.473 19.5725 132.473 19.9739 132.038 20.2269L131.255 20.6807L162.26 38.6301L163.044 38.1763C163.479 37.9233 164.175 37.9233 164.61 38.1763M197.191 57.0419L164.61 38.1763C165.045 38.4294 165.054 38.8395 164.619 39.0838L163.836 39.5376L194.841 57.487L164.036 75.4364L164.828 75.8901C165.263 76.1432 165.271 76.5533 164.836 76.7976L197.208 57.932C197.417 57.8098 197.53 57.644 197.53 57.4782C197.53 57.3125 197.408 57.1467 197.2 57.0245" fill="#4F00F6"/>
<path id="Vector_3" d="M98.8827 37.7226L67.8769 19.7732L67.0937 19.3194C66.6586 19.0664 65.9537 19.0664 65.5273 19.3194C65.1009 19.5725 65.1009 19.9826 65.5273 20.2357L66.3105 20.6894L97.3163 38.6388L98.8827 37.7313M131.464 56.5969L100.458 38.6475L98.8914 39.555L129.897 57.5044L131.464 56.5969ZM164.836 75.9163L164.044 75.4625L133.039 57.5131L131.472 58.4207L162.478 76.37L163.27 76.8238C163.705 77.0768 164.41 77.0768 164.845 76.8238C165.28 76.5707 165.271 76.1606 164.836 75.9163Z" fill="#4F00F6"/>
<path id="Vector_4" d="M66.5196 56.5882L35.5138 38.6388L34.7306 38.185C34.2955 37.932 33.5906 37.932 33.1555 38.185C32.7204 38.4381 32.7291 38.8482 33.1642 39.0925L33.9474 39.5463L64.9532 57.4957L66.5196 56.5882ZM99.1004 75.4538L68.0946 57.5044L66.5282 58.4119L97.534 76.3613L99.1004 75.4538ZM132.473 94.7732L131.681 94.3194L100.675 76.37L99.1091 77.2775L130.115 95.2269L130.907 95.6807C131.342 95.9337 132.047 95.9337 132.473 95.6807C132.9 95.4276 132.9 95.0175 132.473 94.7644" fill="#4F00F6"/>
<path id="Vector_5" d="M132.047 19.3194C131.612 19.0664 130.907 19.0664 130.48 19.3194L129.697 19.7732L98.8917 37.7226L97.3253 38.6301L66.5197 56.5795L64.9533 57.487L34.1477 75.4364L33.3645 75.8901C32.9294 76.1432 32.9381 76.5533 33.3732 76.7976C33.8083 77.042 34.5045 77.0507 34.9396 76.7976L35.7228 76.3439L66.5284 58.3945L68.0948 57.487L98.9004 39.5376L100.467 38.6301L131.272 20.6807L132.056 20.2269C132.491 19.9739 132.482 19.5725 132.056 19.3194" fill="#4F00F6"/>
<path id="Vector_6" d="M164.627 38.185C164.192 37.932 163.487 37.932 163.061 38.185L162.278 38.6388L131.472 56.5882L129.906 57.4957L99.1002 75.4451L97.5339 76.3526L66.7283 94.302L65.9451 94.7557C65.51 95.0088 65.5187 95.4189 65.9538 95.6632C66.3889 95.9075 67.0937 95.9163 67.5201 95.6632L68.3033 95.2095L99.1089 77.2601L100.675 76.3526L131.481 58.4032L133.047 57.4957L163.853 39.5463L164.636 39.0925C165.071 38.8395 165.063 38.4294 164.627 38.185Z" fill="#4F00F6"/>
</g>
</g>
</g>
</g>
</g>
</g>
<defs>
<clipPath id="clip0_371_428">
<rect width="198" height="115" fill="white"/>
</clipPath>
</defs>
</svg>
