<svg width="220" height="128" viewBox="0 0 220 128" fill="none" xmlns="http://www.w3.org/2000/svg">
<g id="Gird graphic 100km2" clip-path="url(#clip0_371_335)">
<g id="Group">
<g id="Clip path group">
<mask id="mask0_371_335" style="mask-type:luminance" maskUnits="userSpaceOnUse" x="0" y="0" width="220" height="128">
<g id="clippath">
<path id="Vector" d="M0 64.0049L109.637 0L220 64.0049L110.363 128L0 64.0049Z" fill="white"/>
</g>
</mask>
<g mask="url(#mask0_371_335)">
<g id="Group_2">
<g id="Group_3">
<path id="Vector_2" d="M138.2 111.751C137.717 112.033 136.933 112.033 136.45 111.751L135.57 111.246L123.822 118.103L124.702 118.608C125.185 118.89 125.195 119.346 124.712 119.618L138.2 111.741M151.688 103.865C151.205 104.146 150.422 104.146 149.938 103.865L149.058 103.36L137.31 110.217L138.19 110.722C138.674 111.003 138.674 111.46 138.19 111.741L151.679 103.865M165.167 95.9879C164.684 96.2695 163.9 96.2695 163.417 95.9879L162.537 95.4828L150.789 102.34L151.669 102.845C152.152 103.126 152.162 103.583 151.679 103.855L165.167 95.9781M178.655 88.1014C178.172 88.383 177.398 88.383 176.915 88.1014L176.035 87.5963L164.287 94.4533L165.167 94.9583C165.65 95.24 165.65 95.6965 165.167 95.9781L178.655 88.1014ZM192.144 80.2246C191.66 80.5063 190.877 80.5063 190.394 80.2246L189.514 79.7196L177.766 86.5765L178.646 87.0816C179.129 87.3632 179.139 87.8197 178.646 88.1014L192.134 80.2246M205.622 72.3478C205.139 72.6295 204.365 72.6295 203.882 72.3478L203.002 71.8428L191.254 78.6998L192.134 79.2048C192.617 79.4865 192.617 79.9429 192.134 80.2246L205.622 72.3478ZM124.083 8.38183L110.508 0.505055C110.285 0.378794 109.966 0.291382 109.647 0.291382C109.319 0.291382 108.999 0.369081 108.777 0.505055L0.87045 63.4901C0.638393 63.6261 0.512695 63.8106 0.512695 63.9951C0.512695 64.1797 0.648062 64.3642 0.880119 64.5002L109.493 127.485C109.725 127.621 110.034 127.699 110.363 127.699C110.692 127.699 111.011 127.621 111.233 127.485L124.721 119.608C124.238 119.89 123.455 119.89 122.971 119.608L122.091 119.103L110.343 125.96L98.5182 119.103L97.648 119.608C97.1646 119.89 96.391 119.89 95.9076 119.608C95.4241 119.327 95.4241 118.88 95.9076 118.598L96.7778 118.093L84.9526 111.236L84.0823 111.741C83.5989 112.023 82.8254 112.023 82.3419 111.741C81.8585 111.46 81.8488 111.003 82.3322 110.731L83.2025 110.226L71.3772 103.369L70.507 103.874C70.0235 104.156 69.25 104.156 68.7666 103.874C68.2831 103.593 68.2734 103.136 68.7569 102.864L69.6271 102.359L57.8018 95.5022L56.9316 96.0073C56.4482 96.2889 55.6747 96.2889 55.1912 96.0073C54.7077 95.7256 54.6981 95.2691 55.1815 94.9972L56.0517 94.4922L44.2265 87.6352L43.3563 88.1402C42.8728 88.4219 42.0993 88.4219 41.6158 88.1402C41.1324 87.8586 41.1227 87.4021 41.6062 87.1301L42.4764 86.6251L30.6511 79.7681L29.7809 80.2732C29.2975 80.5548 28.5239 80.5548 28.0405 80.2732C27.557 79.9915 27.557 79.5447 28.0405 79.2631L28.9107 78.758L17.0855 71.9011L16.2152 72.4061C15.7318 72.6878 14.9583 72.6878 14.4748 72.4061C13.9914 72.1245 13.9817 71.668 14.4651 71.396L15.3354 70.891L3.5101 64.034L15.258 57.177L14.3781 56.672C13.8947 56.3903 13.8947 55.9338 14.3781 55.6619C14.8616 55.3899 15.6351 55.3802 16.1185 55.6619L16.9984 56.1669L28.7463 49.31L27.8664 48.8049C27.383 48.5233 27.383 48.0668 27.8664 47.7948C28.3499 47.5229 29.1234 47.5132 29.6069 47.7948L30.4868 48.2999L42.2347 41.4429L41.3548 40.9379C40.8713 40.6562 40.8713 40.1997 41.3548 39.9278C41.8382 39.6558 42.6118 39.6461 43.0952 39.9278L43.9751 40.4328L55.723 33.5759L54.8431 33.0708C54.3597 32.7891 54.3597 32.3327 54.8431 32.0607C55.3266 31.7888 56.1001 31.7791 56.5835 32.0607L57.4634 32.5658L69.2113 25.7088L68.3314 25.2037C67.848 24.9221 67.848 24.4753 68.3314 24.1937C68.8149 23.912 69.5884 23.912 70.0719 24.1937L70.9518 24.6987L82.6997 17.8417L81.8198 17.3367C81.3363 17.055 81.3363 16.5985 81.8198 16.3266C82.3032 16.0546 83.0768 16.0449 83.5602 16.3266L84.4401 16.8316L96.188 9.97467L95.3081 9.46962C94.8247 9.18796 94.8247 8.74119 95.3081 8.45953C95.7916 8.17787 96.5651 8.17787 97.0485 8.45953L97.9284 8.96457L109.676 2.1076L121.502 8.96457L122.372 8.45953C122.855 8.17787 123.629 8.17787 124.112 8.45953M137.688 16.3363L124.112 8.45953C124.596 8.74119 124.605 9.19767 124.122 9.46962L123.252 9.97467L135.077 16.8316L135.947 16.3266C136.431 16.0449 137.204 16.0449 137.688 16.3266M151.263 24.2034L137.688 16.3266C138.171 16.6082 138.181 17.0647 137.697 17.3367L136.827 17.8417L148.652 24.6987L149.522 24.1937C150.006 23.912 150.779 23.912 151.263 24.1937M164.838 32.0704L151.263 24.1937C151.746 24.4753 151.746 24.9221 151.263 25.2037L150.393 25.7088L162.218 32.5658L163.088 32.0607C163.572 31.7791 164.345 31.7791 164.829 32.0607M178.404 39.9375L164.829 32.0607C165.312 32.3424 165.322 32.7989 164.838 33.0708L163.968 33.5759L175.793 40.4328L176.664 39.9278C177.147 39.6461 177.921 39.6461 178.404 39.9278M191.979 47.8046L178.404 39.9278C178.887 40.2094 178.887 40.6562 178.404 40.9379L177.534 41.4429L189.359 48.2999L190.229 47.7948C190.713 47.5132 191.486 47.5132 191.97 47.7948M205.545 55.6716L191.97 47.7948C192.453 48.0765 192.463 48.533 191.979 48.8049L191.109 49.31L202.934 56.1669L203.805 55.6619C204.288 55.3802 205.062 55.3802 205.545 55.6619M219.12 63.5387L205.545 55.6619C206.028 55.9436 206.038 56.4 205.555 56.672L204.684 57.177L216.51 64.034L204.762 70.891L205.642 71.396C206.125 71.6777 206.125 72.1342 205.642 72.4158L219.13 64.539C219.362 64.4031 219.488 64.2185 219.488 64.034C219.488 63.8495 219.352 63.6649 219.12 63.529" fill="#4F00F6"/>
<path id="Vector_3" d="M28.7945 62.985L16.9692 56.128L16.0893 55.623C15.6059 55.3413 14.8324 55.3413 14.3489 55.623C13.8655 55.9046 13.8655 56.3611 14.3489 56.6331L15.2288 57.1381L27.0541 63.9951L28.7945 62.985ZM42.3698 70.8618L30.5446 64.0048L28.8042 65.0149L40.6294 71.8719L42.3698 70.8618ZM55.9452 78.7386L44.1199 71.8816L42.3795 72.8917L54.2048 79.7486L55.9452 78.7386ZM69.5205 86.6153L57.6953 79.7584L55.9549 80.7685L67.7801 87.6254L69.5205 86.6153ZM83.0959 94.4921L71.2706 87.6351L69.5302 88.6452L81.3555 95.5022L83.0959 94.4921ZM96.6712 102.369L84.846 95.5119L83.1056 96.522L94.9308 103.379L96.6712 102.369ZM110.247 110.246L98.4213 103.389L96.6809 104.399L108.506 111.256L110.247 110.246ZM124.692 118.627L123.812 118.122L111.987 111.265L110.247 112.276L122.072 119.133L122.952 119.638C123.435 119.919 124.218 119.919 124.702 119.638C125.185 119.356 125.176 118.899 124.692 118.627Z" fill="#4F00F6"/>
<path id="Vector_4" d="M42.2831 55.1083L30.4578 48.2513L29.5779 47.7463C29.0945 47.4646 28.3113 47.4646 27.8375 47.7463C27.3637 48.0279 27.354 48.4844 27.8375 48.7564L28.7174 49.2614L40.5426 56.1184L42.2831 55.0986M55.8584 62.9754L44.0332 56.1184L42.2927 57.1382L54.118 63.9952L55.8584 62.9754ZM69.4338 70.8521L57.6085 63.9952L55.8681 65.015L67.6933 71.8719L69.4338 70.8521ZM83.0091 78.7289L71.1839 71.8719L69.4434 72.8917L81.2687 79.7487L83.0091 78.7289ZM96.5845 86.6057L84.7592 79.7487L83.0188 80.7685L94.844 87.6255L96.5845 86.6057ZM110.16 94.4825L98.3346 87.6255L96.5941 88.6453L108.419 95.5023L110.16 94.4825ZM123.735 102.359L111.91 95.5023L110.169 96.5221L121.995 103.379L123.735 102.359ZM138.181 110.741L137.301 110.236L125.476 103.379L123.735 104.399L135.56 111.256L136.44 111.761C136.924 112.043 137.707 112.043 138.19 111.761C138.674 111.479 138.664 111.023 138.19 110.741" fill="#4F00F6"/>
<path id="Vector_5" d="M55.7715 47.2412L43.9463 40.3843L43.0664 39.8792C42.5829 39.5976 41.8094 39.5976 41.326 39.8792C40.8425 40.1609 40.8425 40.6174 41.326 40.8893L42.2059 41.3943L54.0311 48.2513L55.7715 47.2412ZM69.3469 55.118L57.5216 48.261L55.7812 49.2711L67.6065 56.1281L69.3469 55.118ZM82.9222 62.9948L71.097 56.1378L69.3566 57.1479L81.1818 64.0049L82.9222 62.9948ZM96.4976 70.8716L84.6723 64.0146L82.9319 65.0247L94.7572 71.8816L96.4976 70.8716ZM110.073 78.7483L98.2477 71.8913L96.5073 72.9014L108.333 79.7584L110.073 78.7483ZM123.648 86.6251L111.823 79.7681L110.083 80.7782L121.908 87.6352L123.648 86.6251ZM137.224 94.5019L125.398 87.6449L123.658 88.655L135.483 95.512L137.224 94.5019ZM151.669 102.884L150.789 102.379L138.964 95.5217L137.224 96.5318L149.049 103.389L149.929 103.894C150.412 104.175 151.195 104.175 151.679 103.894C152.162 103.612 152.153 103.156 151.669 102.884Z" fill="#4F00F6"/>
<path id="Vector_6" d="M69.2601 39.3644L57.4349 32.5074L56.555 32.0024C56.0715 31.7207 55.2883 31.7207 54.8145 32.0024C54.3408 32.284 54.3311 32.7405 54.8145 33.0125L55.6944 33.5175L67.5197 40.3745L69.2601 39.3547M82.8355 47.2315L71.0102 40.3745L69.2698 41.3943L81.095 48.2513L82.8355 47.2315ZM96.4108 55.1082L84.5856 48.2513L82.8451 49.2711L94.6704 56.128L96.4108 55.1082ZM109.986 62.985L98.1609 56.128L96.4205 57.1478L108.246 64.0048L109.986 62.985ZM123.562 70.8618L111.736 64.0048L109.996 65.0246L121.821 71.8816L123.562 70.8618ZM137.137 78.7386L125.312 71.8816L123.571 72.9014L135.396 79.7584L137.137 78.7386ZM150.712 86.6153L138.887 79.7584L137.147 80.7782L148.972 87.6351L150.712 86.6153ZM165.158 94.9972L164.278 94.4921L152.453 87.6351L150.712 88.6549L162.537 95.5119L163.417 96.017C163.901 96.2986 164.684 96.2986 165.167 96.017C165.651 95.7353 165.641 95.2788 165.167 94.9972" fill="#4F00F6"/>
<path id="Vector_7" d="M82.7474 31.4877L70.9222 24.6307L70.0423 24.1257C69.5588 23.844 68.7853 23.844 68.3018 24.1257C67.8184 24.4073 67.8281 24.8541 68.3018 25.1358L69.1817 25.6408L81.007 32.4978L82.7474 31.4877ZM96.3228 39.3645L84.4975 32.5075L82.7571 33.5176L94.5823 40.3746L96.3228 39.3645ZM109.898 47.2412L98.0729 40.3843L96.3324 41.3944L108.158 48.2513L109.898 47.2412ZM123.473 55.118L111.648 48.261L109.908 49.2711L121.733 56.1281L123.473 55.118ZM137.049 62.9948L125.224 56.1378L123.483 57.1479L135.308 64.0049L137.049 62.9948ZM150.624 70.8716L138.799 64.0146L137.058 65.0247L148.884 71.8817L150.624 70.8716ZM164.2 78.7483L152.374 71.8914L150.634 72.9015L162.459 79.7584L164.2 78.7483ZM178.645 87.1302L177.765 86.6251L165.94 79.7681L164.2 80.7782L176.025 87.6352L176.905 88.1403C177.388 88.4219 178.171 88.4219 178.645 88.1403C179.119 87.8586 179.119 87.4021 178.645 87.1204" fill="#4F00F6"/>
<path id="Vector_8" d="M96.2362 23.6206L84.4109 16.7637L83.531 16.2586C83.0476 15.9769 82.2644 15.9769 81.7906 16.2586C81.3168 16.5403 81.3072 16.9968 81.7906 17.2687L82.6705 17.7737L94.4958 24.6307L96.2362 23.6109M109.812 31.4877L97.9863 24.6307L96.2459 25.6505L108.071 32.5075L109.812 31.4877ZM123.387 39.3645L111.562 32.5075L109.821 33.5273L121.646 40.3843L123.387 39.3645ZM136.962 47.2412L125.137 40.3843L123.397 41.4041L135.222 48.261L136.962 47.2412ZM150.538 55.118L138.712 48.261L136.972 49.2808L148.797 56.1378L150.538 55.118ZM164.113 62.9948L152.288 56.1378L150.547 57.1576L162.373 64.0146L164.113 62.9948ZM177.688 70.8716L165.863 64.0146L164.123 65.0344L175.948 71.8914L177.688 70.8716ZM192.134 79.2534L191.254 78.7483L179.429 71.8914L177.688 72.9112L189.514 79.7681L190.393 80.2732C190.877 80.5548 191.66 80.5548 192.144 80.2732C192.627 79.9915 192.617 79.535 192.144 79.2534" fill="#4F00F6"/>
<path id="Vector_9" d="M109.725 15.7438L97.8995 8.88682L97.0196 8.38178C96.5361 8.10012 95.7529 8.10012 95.2792 8.38178C94.8054 8.66344 94.8054 9.11021 95.2792 9.39187L96.159 9.89691L107.984 16.7539L109.725 15.7438ZM123.3 23.6206L111.475 16.7636L109.734 17.7737L121.56 24.6307L123.3 23.6206ZM136.875 31.4973L125.05 24.6404L123.31 25.6505L135.135 32.5074L136.875 31.4973ZM150.451 39.3741L138.626 32.5171L136.885 33.5272L148.71 40.3842L150.451 39.3741ZM164.026 47.2509L152.201 40.3939L150.46 41.404L162.286 48.261L164.026 47.2509ZM177.601 55.1277L165.776 48.2707L164.036 49.2808L175.861 56.1378L177.601 55.1277ZM191.177 63.0044L179.352 56.1475L177.611 57.1576L189.436 64.0145L191.177 63.0044ZM205.622 71.3863L204.743 70.8812L192.917 64.0242L191.177 65.0343L203.002 71.8913L203.882 72.3964C204.365 72.678 205.149 72.678 205.622 72.3964C206.096 72.1147 206.096 71.6582 205.622 71.3765" fill="#4F00F6"/>
<path id="Vector_10" d="M205.545 55.623C205.061 55.3413 204.288 55.3413 203.804 55.623L202.934 56.128L191.186 62.985L189.446 63.9951L177.698 70.8521L175.957 71.8719L164.209 78.7288L162.469 79.7389L150.721 86.5959L148.981 87.6157L137.233 94.4727L135.492 95.4828L123.744 102.34L122.004 103.36L110.256 110.217L108.516 111.227L96.7678 118.084L95.8975 118.589C95.4141 118.87 95.4238 119.317 95.8975 119.599C96.3713 119.88 97.1642 119.88 97.638 119.599L98.5082 119.094L110.256 112.237L111.997 111.227L123.744 104.37L125.485 103.35L137.233 96.4929L138.973 95.4828L150.721 88.6258L152.462 87.606L164.209 80.749L165.95 79.7389L177.698 72.882L179.438 71.8622L191.186 65.0052L192.927 63.9951L204.674 57.1381L205.545 56.6331C206.028 56.3514 206.018 55.9046 205.535 55.623" fill="#4F00F6"/>
<path id="Vector_11" d="M191.97 47.7463C191.486 47.4646 190.703 47.4646 190.229 47.7463L189.359 48.2513L177.611 55.1083L175.871 56.1184L164.123 62.9754L162.382 63.9952L150.634 70.8521L148.894 71.8622L137.146 78.7192L135.406 79.739L123.658 86.596L121.917 87.6061L110.17 94.463L108.429 95.4828L96.6812 102.34L94.9408 103.35L83.1929 110.207L82.3226 110.712C81.8392 110.994 81.8489 111.45 82.3323 111.722C82.8158 111.994 83.5989 112.004 84.0727 111.722L84.9429 111.217L96.6908 104.36L98.4313 103.35L110.179 96.4929L111.92 95.4731L123.668 88.6161L125.408 87.6061L137.156 80.7491L138.896 79.7293L150.644 72.8723L152.385 71.8622L164.133 65.0053L165.873 63.9854L177.621 57.1285L179.361 56.1184L191.109 49.2614L191.979 48.7564C192.463 48.4747 192.453 48.0182 191.97 47.7463Z" fill="#4F00F6"/>
<path id="Vector_12" d="M178.395 39.8792C177.911 39.5976 177.128 39.5976 176.654 39.8792L175.784 40.3843L164.036 47.2412L162.296 48.2513L150.548 55.1083L148.807 56.1281L137.059 62.9851L135.319 63.9952L123.571 70.8521L121.831 71.8719L110.083 78.7289L108.342 79.739L96.5943 86.596L94.8539 87.6158L83.106 94.4727L81.3656 95.4828L69.6177 102.34L68.7474 102.845C68.264 103.127 68.2737 103.583 68.7571 103.855C69.2406 104.127 70.0141 104.137 70.4975 103.855L71.3678 103.35L83.1157 96.4929L84.8561 95.4828L96.604 88.6259L98.3444 87.606L110.092 80.7491L111.833 79.739L123.581 72.882L125.321 71.8622L137.069 65.0052L138.809 63.9952L150.557 57.1382L152.298 56.1184L164.046 49.2614L165.786 48.2513L177.534 41.3943L178.404 40.8893C178.888 40.6076 178.878 40.1609 178.404 39.8792" fill="#4F00F6"/>
<path id="Vector_13" d="M164.819 32.0024C164.335 31.7207 163.552 31.7207 163.078 32.0024L162.208 32.5074L150.46 39.3644L148.72 40.3745L136.972 47.2315L135.232 48.2513L123.484 55.1082L121.743 56.1183L109.995 62.9753L108.255 63.9951L96.507 70.8521L94.7665 71.8622L83.0186 78.7191L81.2782 79.7389L69.5303 86.5959L67.7899 87.606L56.042 94.463L55.1718 94.968C54.6883 95.2497 54.698 95.7062 55.1814 95.9781C55.6649 96.2501 56.4481 96.2598 56.9219 95.9781L57.7921 95.4731L69.54 88.6161L71.2804 87.606L83.0283 80.749L84.7687 79.7292L96.5166 72.8722L98.2571 71.8622L110.005 65.0052L111.745 63.9854L123.493 57.1284L125.234 56.1183L136.982 49.2614L138.722 48.2416L150.47 41.3846L152.21 40.3745L163.958 33.5175L164.829 33.0125C165.312 32.7308 165.302 32.2743 164.819 32.0024Z" fill="#4F00F6"/>
<path id="Vector_14" d="M151.244 24.1257C150.76 23.844 149.977 23.844 149.503 24.1257L148.633 24.6307L136.885 31.4877L135.145 32.4978L123.397 39.3548L121.656 40.3746L109.908 47.2315L108.168 48.2416L96.4201 55.0986L94.6797 56.1184L82.9318 62.9754L81.1913 63.9855L69.4434 70.8424L67.703 71.8622L55.9551 78.7192L54.2147 79.7293L42.4668 86.5863L41.5966 87.0913C41.1131 87.373 41.1228 87.8294 41.6062 88.1014C42.0897 88.3733 42.8632 88.3831 43.3467 88.1014L44.2169 87.5964L55.9648 80.7394L57.7052 79.7293L69.4531 72.8723L71.1935 71.8525L82.9414 64.9955L84.6819 63.9855L96.4298 57.1285L98.1702 56.1087L109.918 49.2517L111.659 48.2416L123.406 41.3846L125.147 40.3648L136.895 33.5079L138.635 32.4978L150.383 25.6408L151.253 25.1358C151.737 24.8541 151.727 24.4073 151.253 24.1257" fill="#4F00F6"/>
<path id="Vector_15" d="M137.658 16.249C137.175 15.9673 136.401 15.9673 135.918 16.249L135.048 16.754L123.3 23.611L121.559 24.6211L109.812 31.478L108.071 32.4978L96.3232 39.3548L94.5828 40.3649L82.8349 47.2219L81.0944 48.2417L69.3465 55.0987L67.6061 56.1087L55.8582 62.9657L54.1178 63.9855L42.3699 70.8425L40.6294 71.8526L28.8815 78.7096L28.0113 79.2146C27.5279 79.4963 27.5375 79.943 28.0113 80.2247C28.4851 80.5064 29.278 80.5064 29.7517 80.2247L30.622 79.7197L42.3699 72.8627L44.1103 71.8526L55.8582 64.9956L57.5986 63.9758L69.3465 57.1188L71.087 56.1087L82.8349 49.2518L84.5753 48.232L96.3232 41.375L98.0636 40.3649L109.812 33.5079L111.552 32.4881L123.3 25.6312L125.04 24.6211L136.788 17.7641L137.658 17.2591C138.142 16.9774 138.132 16.5209 137.649 16.249" fill="#4F00F6"/>
<path id="Vector_16" d="M124.083 8.3819C123.6 8.10024 122.817 8.10024 122.343 8.3819L121.473 8.88694L109.725 15.7439L107.985 16.754L96.2366 23.611L94.4962 24.6308L82.7483 31.4878L81.0079 32.4978L69.2599 39.3548L67.5195 40.3746L55.7716 47.2316L54.0312 48.2417L42.2833 55.0987L40.5429 56.1185L28.795 62.9754L27.0545 63.9855L15.3066 70.8425L14.4364 71.3475C13.953 71.6292 13.9626 72.0857 14.4461 72.3576C14.9295 72.6296 15.7127 72.6393 16.1865 72.3576L17.0567 71.8526L28.8046 64.9956L30.545 63.9855L42.293 57.1285L44.0334 56.1087L55.7813 49.2518L57.5217 48.2417L69.2696 41.3847L71.01 40.3649L82.7579 33.5079L84.4984 32.4978L96.2463 25.6409L97.9867 24.6211L109.735 17.7641L111.475 16.754L123.223 9.89704L124.093 9.39199C124.577 9.11033 124.567 8.65385 124.083 8.3819Z" fill="#4F00F6"/>
</g>
</g>
</g>
</g>
</g>
</g>
<defs>
<clipPath id="clip0_371_335">
<rect width="220" height="128" fill="white"/>
</clipPath>
</defs>
</svg>
