<svg width="196" height="122" viewBox="0 0 196 122" fill="none" xmlns="http://www.w3.org/2000/svg">
<path id="cadmnapper-wholecity" d="M122.426 27.2485C122.586 27.342 122.773 27.4088 122.972 27.4488C128.512 28.5172 134.625 27.756 138.846 25.5525C138.913 25.686 138.979 25.8196 139.073 25.9398C139.619 26.7811 140.524 27.5156 141.589 28.1299C142.468 28.6374 143.454 29.0781 144.492 29.4253C144.612 29.8259 144.839 30.2132 145.145 30.6005C145.784 31.4285 146.743 32.2431 147.782 33.0043C148.807 33.7655 149.899 34.46 150.831 34.9942C151.044 35.1144 151.257 35.2345 151.457 35.3414C151.697 36.0625 152.283 36.7436 153.015 37.398C154.28 38.5198 156.052 39.6015 157.703 40.5897C158.529 41.0972 159.328 41.578 160.007 42.0187C160.326 42.219 160.606 42.4193 160.872 42.6063C160.286 42.8333 159.541 43.087 158.782 43.3808C157.969 43.688 157.157 44.0219 156.464 44.4225C156.025 44.6762 155.639 44.9567 155.359 45.3173C155.173 45.5443 155.066 45.8114 155.053 46.0918C154.813 46.2654 154.587 46.399 154.387 46.5192C153.961 46.7596 153.641 46.8931 153.362 46.9732C153.148 47.04 152.935 47.0667 152.669 47.0934C152.283 47.1468 151.764 47.1602 151.098 47.1869C150.432 47.227 149.606 47.267 148.661 47.4006C148.208 47.4673 147.835 47.641 147.662 47.8947C147.489 48.1484 147.529 48.4289 147.782 48.6559C148.155 49.0031 148.514 49.2702 148.9 49.4972C149.46 49.8178 150.099 50.0448 150.778 50.1116C151.284 50.165 151.75 50.1249 152.096 50.0715C152.176 50.0581 152.256 50.0448 152.323 50.0314C152.349 50.0848 152.376 50.1516 152.416 50.2184C152.563 50.5523 152.722 51.0464 152.895 51.7141C152.949 51.8877 153.095 52.048 153.308 52.1815C153.362 52.2216 153.428 52.2483 153.495 52.275C153.948 52.4486 154.387 52.6623 154.773 52.8893C154.786 52.8893 154.8 52.9027 154.813 52.916C155.426 53.2766 155.852 53.6639 155.972 53.9176C156.038 54.0512 156.038 54.1446 156.012 54.2114C155.985 54.2648 155.945 54.3316 155.799 54.4251C155.599 54.5453 155.159 54.7055 154.374 54.8524C154.161 54.8925 154.014 54.9459 153.908 54.9993C153.468 55.1996 153.282 55.5202 153.402 55.814C153.402 55.8674 153.402 55.9341 153.375 56.0143C153.308 56.5752 153.095 57.6569 152.935 58.6051C152.856 59.0858 152.776 59.5265 152.749 59.8737C152.736 60.0474 152.722 60.1943 152.722 60.3412C152.722 60.4079 152.722 60.4747 152.749 60.5682C152.749 60.6083 152.762 60.6617 152.802 60.7418C152.842 60.7952 152.882 60.8753 153.029 60.9955C153.242 61.1825 153.388 61.4229 153.521 61.73C153.708 62.1974 153.788 62.7851 154.014 63.4261C154.121 63.7466 154.28 64.0671 154.533 64.4009C154.786 64.7215 155.146 65.0553 155.639 65.3358C155.892 65.4827 156.171 65.6162 156.478 65.7231C156.651 65.7898 156.864 65.8299 157.064 65.8432C157.33 65.87 157.49 65.8967 157.596 65.9367C157.703 65.9768 157.783 66.0035 157.863 66.0436C157.996 66.1237 158.156 66.2572 158.355 66.4576C158.568 66.6579 158.822 66.9116 159.274 67.1787C159.621 67.379 160.073 67.566 160.606 67.6728C161.139 67.793 161.751 67.8464 162.43 67.8464C163.03 67.8464 163.562 67.6328 163.762 67.2989C163.842 67.339 163.922 67.379 164.015 67.4057C164.974 67.7129 165.973 67.8731 166.865 68.0601C167.744 68.2337 168.463 68.4474 168.823 68.6611C168.823 68.6611 168.823 68.6611 168.836 68.6611L168.969 68.7412C168.969 68.7412 169.036 68.7946 169.076 68.808C169.515 69.0617 170.168 69.1285 170.714 68.9549C171.073 68.848 171.366 68.8213 171.699 68.8213C172.205 68.8213 172.818 68.9549 173.497 69.1952C174.176 69.4356 174.908 69.7962 175.627 70.2102C176.44 70.6776 177.252 71.2385 177.985 71.746C178.717 72.2534 179.356 72.7209 179.969 73.0814C179.969 73.0814 179.982 73.0814 179.995 73.0814C180.275 73.2417 180.648 73.3218 181.034 73.3218C181.447 73.3218 181.886 73.3619 182.353 73.4687C183.178 73.6423 184.137 74.0163 185.136 74.457C186.641 75.1247 188.225 75.9794 190.076 76.5403C191.009 76.8207 192.034 77.0344 193.153 77.0745C193.765 77.1012 194.404 77.0611 195.044 76.9676C195.137 77.1279 195.203 77.2614 195.23 77.3683C195.257 77.4751 195.257 77.5285 195.257 77.5552C195.23 77.5552 195.15 77.6086 194.937 77.662C194.724 77.7155 194.378 77.7689 193.912 77.8223C193.392 77.8757 192.966 78.1028 192.82 78.3966C192.593 78.8506 192.46 79.3581 192.54 79.9056C192.62 80.3864 192.9 80.9206 193.539 81.3613C193.392 81.6417 193.192 81.9756 192.979 82.2827C192.62 82.7902 192.14 83.2576 191.741 83.4846C191.608 83.5648 191.488 83.6048 191.421 83.6315C191.355 83.6583 191.288 83.6583 191.262 83.6716C190.835 83.685 190.463 83.8185 190.223 84.0188C189.97 84.2191 189.89 84.4729 189.996 84.7133C190.423 85.6481 191.248 86.4494 191.741 87.0236C191.901 87.1972 192.021 87.3575 192.1 87.4777C192.007 87.4777 191.874 87.491 191.741 87.5044C191.301 87.5311 190.676 87.5177 189.85 87.4777C189.304 87.451 188.771 87.6112 188.505 87.8917C188.225 88.1721 188.252 88.506 188.558 88.7731C188.558 88.7731 188.678 88.8932 188.811 89.0669C189.011 89.3206 189.277 89.6545 189.61 90.015C189.943 90.3623 190.303 90.7228 190.835 91.03C191.035 91.1368 191.262 91.257 191.541 91.3505L191.515 92.3788C191.515 92.6058 191.661 92.8195 191.941 92.9798C192.074 93.0465 192.22 93.1133 192.393 93.1534C192.607 93.2068 192.74 93.2602 192.82 93.3136C192.939 93.3804 192.979 93.4338 193.033 93.554C193.113 93.7543 193.059 94.1416 192.766 94.6224C192.34 95.3302 191.501 96.1848 190.716 96.9327C190.316 97.3066 189.943 97.6539 189.624 97.9744C189.464 98.1346 189.317 98.2815 189.197 98.4284C189.078 98.5753 188.958 98.7089 188.878 98.8691C188.851 98.9359 188.825 98.9893 188.825 99.0561C188.731 100.472 188.585 101.487 188.398 102.154C188.318 102.421 188.239 102.635 188.159 102.782C187.879 102.662 187.506 102.475 187.067 102.261C185.562 101.513 183.351 100.351 180.208 99.9375C178.051 99.2297 176.786 98.7222 175.92 98.375C175.588 98.2415 175.321 98.1346 175.068 98.0278C174.855 97.9477 174.642 97.8675 174.389 97.8008C174.163 97.7473 173.883 97.6939 173.55 97.6806C173.27 97.6806 172.964 97.7073 172.724 97.7607C172.312 97.8542 172.072 97.9744 171.832 98.0812C171.486 98.2415 171.126 98.4284 170.54 98.6822C170.128 98.8558 169.622 99.0561 168.969 99.2965C169.169 98.9493 169.422 98.5753 169.648 98.2682C169.795 98.0545 169.941 97.8809 170.034 97.7473C170.088 97.6806 170.128 97.6272 170.168 97.5871L170.221 97.507L170.274 97.4268C170.274 97.4268 170.301 97.3734 170.327 97.3066C170.327 97.2666 170.354 97.2132 170.327 97.1197C170.327 97.0662 170.314 96.9995 170.261 96.9194C170.194 96.8392 170.114 96.719 169.914 96.6122C169.808 96.5454 169.648 96.4787 169.462 96.4386C169.129 96.3585 168.783 96.3585 168.569 96.3985C168.49 96.3985 168.41 96.4252 168.356 96.4386L165.76 96.7858C165.387 96.8392 165.054 96.9728 164.854 97.1731C164.841 97.1864 164.827 97.1998 164.801 97.2131C164.441 97.0796 164.002 97.0529 163.589 97.133C163.189 97.2132 162.857 97.4001 162.71 97.6405C162.444 98.0812 162.191 98.4151 161.978 98.6554C161.765 98.8958 161.578 99.0427 161.472 99.0962L161.405 99.1229C161.338 99.1229 161.192 99.0828 160.992 99.016C160.566 98.8825 159.94 98.6421 159.141 98.4151C158.342 98.188 157.33 97.9877 156.131 98.0144C155.546 98.0144 155.026 98.2415 154.826 98.5486C154.64 98.8558 154.773 99.1896 155.159 99.4167C155.173 99.4167 155.199 99.4434 155.213 99.4434L155.519 99.6036C154.973 99.5235 154.454 99.43 154.081 99.3499C153.921 99.3098 153.801 99.2831 153.708 99.2564C153.655 99.203 153.588 99.1496 153.508 99.1095C153.388 99.0427 153.242 98.976 153.082 98.9359C152.496 98.789 151.83 98.8825 151.417 99.1629L151.297 99.2431C151.084 99.3632 150.698 99.5502 150.272 99.7372C149.846 99.9241 149.38 100.151 148.94 100.405C148.701 100.538 148.474 100.685 148.274 100.872C148.115 101.006 147.982 101.153 147.888 101.326C147.742 101.58 147.702 101.901 147.848 102.208C147.848 102.208 147.848 102.208 147.848 102.221C147.449 102.261 147.103 102.301 146.77 102.341C146.357 102.381 145.944 102.435 145.505 102.528C145.065 102.622 144.612 102.795 144.253 103.009C143.867 103.236 143.56 103.503 143.254 103.837C143.121 103.984 142.988 104.144 142.855 104.318C142.655 104.291 142.455 104.278 142.255 104.278C141.19 104.238 140.098 104.318 139.112 104.451C138.54 104.531 137.994 104.625 137.501 104.732C137.022 104.531 136.489 104.438 136.01 104.398C135.104 104.318 134.252 104.398 133.506 104.465C133.173 104.505 132.853 104.531 132.587 104.572C132.587 104.572 132.574 104.572 132.561 104.558C132.081 104.278 131.535 104.051 130.923 103.904C130.47 103.797 129.977 103.73 129.484 103.73C128.752 103.717 128.046 103.797 127.314 103.931C126.581 104.064 125.822 104.264 124.983 104.505L124.797 104.572C124.357 104.745 124.038 104.839 123.878 104.879C123.851 104.865 123.825 104.852 123.798 104.825C123.691 104.772 123.532 104.678 123.319 104.598C123.119 104.531 122.879 104.451 122.613 104.425C122.12 104.344 121.601 104.371 121.108 104.465C120.376 104.598 119.643 104.839 118.658 105.253C117.672 105.667 116.474 106.254 114.889 107.109C114.543 107.296 114.383 107.576 114.45 107.843L114.769 108.992C114.423 109.112 114.13 109.259 113.864 109.406C113.397 109.686 112.998 109.993 112.625 110.327C112.079 110.821 111.613 111.356 111.214 111.81C111.094 111.957 110.974 112.104 110.867 112.224C110.721 112.224 110.588 112.197 110.441 112.197C109.576 112.17 108.75 112.317 108.097 112.518C107.418 112.731 106.859 113.012 106.353 113.305C105.82 113.613 105.341 113.946 104.901 114.254C104.462 114.561 104.049 114.841 103.689 115.055C103.423 115.215 103.17 115.335 102.984 115.402C102.797 115.456 102.704 115.482 102.651 115.482C102.384 115.482 102.105 115.536 101.878 115.629C99.468 116.604 97.7368 116.991 96.5249 117.111C95.606 117.192 95.0068 117.138 94.4741 117.018C94.0746 116.938 93.7284 116.818 93.3688 116.671C93.1025 116.564 92.8361 116.444 92.5565 116.324C92.3434 116.23 92.117 116.15 91.8374 116.056C91.6243 116.003 91.3846 115.936 91.1049 115.896C90.6921 115.843 90.1727 115.843 89.7067 115.936C89.2406 116.03 88.8677 116.19 88.5481 116.377C88.1086 116.644 87.7224 116.965 87.3096 117.379C87.0566 117.632 86.8036 117.926 86.5239 118.247L82.1293 117.152C81.8097 117.071 81.4368 117.058 81.1172 117.125C80.6245 117.232 79.6391 117.298 78.6403 117.285C77.6548 117.285 76.6161 117.218 76.0169 117.138C75.5108 117.058 74.9648 117.165 74.6186 117.392C74.0193 117.779 73.1803 118.26 72.3414 118.767C71.5024 119.275 70.6768 119.809 70.0509 120.397C69.8511 120.584 69.7978 120.824 69.8911 121.038C69.9177 121.091 69.931 121.131 69.9443 121.171C69.7845 121.171 69.5848 121.171 69.3318 121.145C68.3463 120.824 67.3609 120.53 66.5219 120.263C65.6163 119.983 64.8706 119.702 64.4578 119.462C64.4578 119.462 64.4444 119.462 64.4311 119.449C64.2447 119.342 64.1248 119.248 64.0583 119.168C63.9784 119.048 63.9517 118.981 63.9917 118.808C64.0583 118.634 64.2713 118.353 64.7641 117.98C65.1236 117.699 65.1636 117.339 64.8573 117.045C64.5643 116.764 64.4178 116.484 64.3246 116.203C64.1914 115.776 64.2314 115.322 64.2846 114.895C64.298 114.681 64.3246 114.467 64.2846 114.214C64.258 114.093 64.2181 113.96 64.1248 113.813C64.0316 113.666 63.8718 113.506 63.6321 113.359C63.3791 113.212 63.0329 113.105 62.7132 113.052C62.1406 112.972 61.6612 112.998 61.1552 113.065C60.3961 113.172 59.5438 113.359 58.3852 113.666C58.1189 113.733 57.8392 113.813 57.5463 113.893C57.7593 113.586 57.9857 113.279 58.2254 112.985C58.7714 112.29 59.424 111.676 59.9966 111.342C60.2896 111.169 60.5426 111.089 60.7024 111.048C60.8755 111.022 60.9687 111.022 61.2217 111.062C61.8876 111.209 62.62 111.048 62.9663 110.688C63.2859 110.367 63.166 109.953 62.7266 109.7C62.6866 109.673 62.6467 109.66 62.5934 109.633L62.5002 109.579C62.407 109.526 62.4336 109.526 62.4203 109.526C62.4203 109.526 62.4203 109.499 62.4469 109.433C62.5002 109.312 62.6866 109.085 62.9796 108.818C63.4324 108.418 64.0849 107.95 64.6442 107.429C64.9239 107.162 65.1769 106.882 65.35 106.561C65.5231 106.241 65.6163 105.867 65.4832 105.493C65.4299 105.346 65.2967 105.199 65.1236 105.092C65.0437 105.039 64.9505 104.986 64.8573 104.932C64.8573 104.932 64.8306 104.919 64.8173 104.905C63.8186 104.331 62.8597 104.051 62.1406 103.917C62.1406 103.917 62.1406 103.89 62.1539 103.877C62.2605 103.597 62.4336 103.223 62.6467 102.715C62.7665 102.448 62.6467 102.168 62.3271 101.954C61.9808 101.727 61.6479 101.527 61.3549 101.353C60.3828 100.792 59.637 100.458 58.878 100.271C58.3187 100.124 57.6794 100.084 57.2 100.138C56.8804 100.165 56.654 100.231 56.4942 100.258C56.4543 100.245 56.4143 100.218 56.3744 100.191C56.3211 100.165 56.2679 100.124 56.2013 100.084C56.188 100.084 56.1613 100.058 56.148 100.044C55.9616 99.9375 55.7085 99.8574 55.4422 99.8173C54.9761 99.7639 54.5367 99.7372 54.0572 99.7906C53.6045 99.8306 53.1117 99.9642 52.7788 100.165C52.5258 100.311 52.366 100.472 52.2461 100.619C52.073 100.846 52.0064 101.059 51.9532 101.26C51.9532 101.26 51.9532 101.286 51.9532 101.3C51.2207 101.42 50.768 101.433 50.5149 101.406C50.3418 101.393 50.2486 101.366 50.1154 101.326C49.9956 101.286 49.8491 101.22 49.6627 101.113C49.4096 100.966 49.0767 100.739 48.6506 100.485C48.6372 100.485 48.6106 100.458 48.5973 100.458C47.9048 100.058 46.8927 99.6036 45.4279 99.3232C45.2148 99.2831 44.9751 99.2698 44.762 99.2831C43.8964 99.3632 43.1906 99.4968 42.618 99.6704C42.0454 99.844 41.6325 100.058 41.3396 100.231C41.1665 100.325 41.0466 100.418 40.9534 100.472C40.8602 100.458 40.7137 100.418 40.5406 100.365C40.1144 100.245 39.6217 100.258 39.2089 100.392L37.0382 101.099C36.5455 100.993 35.9995 100.926 35.4135 100.859C34.508 100.765 33.5092 100.672 32.7235 100.579C32.324 100.538 31.9911 100.485 31.7647 100.445C31.7114 100.445 31.6715 100.432 31.6315 100.418C31.6315 100.418 31.6049 100.405 31.5916 100.392C31.3785 100.271 31.1122 100.191 30.8192 100.165C30.2732 100.111 29.7272 100.124 29.2478 100.218C29.0347 100.258 28.835 100.311 28.6619 100.378C29.0081 99.6036 29.2345 99.0427 29.3677 98.5887C29.4875 98.148 29.5408 97.774 29.4209 97.4135C29.3277 97.133 29.1413 96.8926 28.9282 96.6923C28.6219 96.3985 28.3023 96.1715 27.9294 95.8243C27.6764 95.5973 27.3834 95.3168 27.0505 94.9429C27.4234 94.8093 27.8096 94.6357 28.1691 94.422C28.4355 94.2618 28.6885 94.0882 28.8883 93.8745C29.0081 93.741 29.1146 93.5807 29.1679 93.4071C29.4875 93.1267 29.7272 92.8596 29.9536 92.6192C30.2333 92.312 30.4996 92.0716 30.7127 91.9515C30.9124 91.8446 31.0056 91.8179 31.2054 91.7912C31.8712 91.7378 32.3906 91.4173 32.4306 91.03L32.6303 89.147C32.6569 88.92 32.5238 88.7063 32.2708 88.5327C32.2574 88.4926 32.2308 88.4125 32.2308 88.3324C32.2042 88.0653 32.2175 87.678 32.2308 87.2239C32.2574 86.5562 32.3373 85.7683 32.2308 85.0204C32.1775 84.6465 32.0843 84.2859 31.8979 83.9253C31.7114 83.5648 31.4318 83.2176 30.9124 82.9238C30.6594 82.7769 30.3398 82.6433 29.9802 82.5632L29.7805 82.5231C28.1159 82.2827 26.7975 82.2293 25.7188 82.2961C24.9198 82.3495 24.2673 82.4697 23.7479 82.6166C23.3617 82.7234 23.0554 82.8303 22.8424 82.9104C22.8424 82.9104 22.8424 82.9104 22.8291 82.9104C22.6692 82.8169 22.4562 82.6567 22.1898 82.443C22.1366 82.3495 22.1499 82.3094 22.1632 82.2694C22.1898 82.216 22.2431 82.1492 22.4162 82.0557C22.7358 81.8554 23.5215 81.6284 24.2673 81.5482C24.6402 81.4948 24.9997 81.4815 25.2794 81.4948C25.4125 81.4948 25.5191 81.5082 25.599 81.5215H25.6789V81.5349M25.6789 81.5349L25.7055 81.5082M25.6789 81.5349C26.0384 81.6551 26.4779 81.6818 26.8641 81.6017C27.2503 81.5215 27.5699 81.3479 27.7164 81.1209C27.9428 80.7737 28.3689 80.2662 28.8084 79.7053C29.4742 78.864 30.2333 77.8757 30.5795 76.8608C30.7393 76.3533 30.8059 75.8325 30.6461 75.3116C30.4996 74.7908 30.0868 74.27 29.381 73.856C29.381 73.856 29.3677 73.856 29.3543 73.8426C29.3543 73.8426 29.341 73.8426 29.3277 73.8426C29.4342 73.7892 29.5541 73.7492 29.6739 73.6957C30.1933 73.4687 30.7526 73.2417 31.2453 72.9612C31.4185 72.8678 31.5649 72.7609 31.7248 72.6407C31.9378 72.4538 32.1642 72.2134 32.1909 71.8795C32.1909 71.7193 32.1376 71.5323 32.0177 71.3854C31.8979 71.2251 31.7248 71.0916 31.5383 70.9981C31.2587 70.8379 30.9524 70.731 30.6195 70.6375C30.4197 70.5841 30.2066 70.5307 29.9802 70.4906C29.9137 70.4372 29.8338 70.3972 29.7539 70.3437C29.2212 70.0366 28.542 69.8096 27.7696 69.7294C27.2103 69.676 26.6244 69.7027 26.0651 69.8096C25.1728 69.6493 24.1874 69.5558 23.1753 69.5024C21.3242 69.4223 19.3267 69.5024 17.5023 69.7561C15.9442 69.9698 14.4927 70.2903 13.3208 70.7978C12.7481 70.7444 12.1755 70.7444 11.6295 70.7978C10.4443 70.9046 9.37895 71.1717 8.43345 71.5056C7.56785 71.7994 6.79547 72.1466 6.07636 72.4538C6.02309 72.4538 5.95651 72.4538 5.87661 72.4538C5.19744 72.4805 3.9057 72.4271 2.76044 72.2802C2.37425 72.2401 2.00138 72.1733 1.66846 72.1199C1.80163 72.0131 1.89484 71.8795 1.92148 71.7326C2.04133 71.6391 2.20113 71.5323 2.38757 71.4121C2.72049 71.1984 3.14664 70.9447 3.57278 70.691C4.11877 70.3705 4.67808 70.0633 5.10422 69.8496C5.18412 69.8096 5.26403 69.7695 5.33061 69.7428C5.75675 69.676 6.10299 69.5158 6.28943 69.2754C6.32938 69.222 6.38265 69.1552 6.40928 69.0083C6.40928 68.9549 6.4226 68.8881 6.40928 68.808C6.52913 68.7545 6.80879 68.6611 7.18166 68.5943C7.86083 68.4474 8.80633 68.3406 9.67193 68.2471C10.1114 68.207 10.5242 68.1669 10.9104 68.1269C11.2966 68.0868 11.6162 68.0468 12.0024 67.9533C12.3619 67.8598 12.6416 67.6995 12.7748 67.4859C12.7881 67.4592 12.8414 67.4191 12.9346 67.3523C13.0677 67.2722 13.3074 67.1787 13.6271 67.0986C14.0931 66.9784 14.7057 66.8849 15.2517 66.8716C15.7977 66.8448 16.2904 66.8983 16.4502 66.9517C16.9829 67.0852 17.5955 67.0318 18.0083 66.8048C18.0882 66.7647 18.1681 66.7247 18.248 66.6712C19.5797 65.8833 20.6983 64.7482 21.2044 63.5196C21.4574 62.9052 21.5373 62.2642 21.3509 61.6366C21.1911 61.1024 20.8049 60.5548 20.1657 60.1008C20.1923 59.7669 20.2589 59.3396 20.3255 58.8722C20.4853 57.9373 20.6983 56.8156 20.6051 55.7472C20.5652 55.213 20.4453 54.6788 20.179 54.1713C19.9126 53.6639 19.4732 53.1697 18.7807 52.7691C18.7807 52.7691 18.7674 52.7691 18.7541 52.7691C17.9284 52.2883 16.7565 51.9945 15.4248 51.9411C15.3183 51.9411 15.2251 51.9411 15.1319 51.9411C15.0653 51.9011 14.9987 51.8343 14.9188 51.7542C15.4248 51.1265 15.9042 50.392 16.0507 49.5907C16.144 49.11 16.1173 48.5891 15.8643 48.0817C15.6246 47.5742 15.1319 47.0801 14.3994 46.6527C14.3595 46.626 14.3195 46.6127 14.2796 46.5859C14.3328 46.3856 14.3462 46.1853 14.3329 46.0117C14.2529 45.4508 13.9733 45.0101 13.8934 44.7163C13.8534 44.5694 13.8401 44.4626 13.8534 44.3958C13.8668 44.3424 13.8934 44.3023 13.9733 44.2355C14.3994 43.9017 14.3462 43.4343 13.8401 43.1405C13.8401 43.1405 13.8268 43.1405 13.8135 43.1271C13.3208 42.8467 12.7348 42.6864 12.2155 42.5929C11.4164 42.4594 10.7905 42.4727 10.431 42.446C10.2446 42.4327 10.138 42.4193 10.0714 42.406L9.92495 42.3525C10.1513 42.0854 10.3245 41.8317 10.431 41.5913C10.5775 41.2708 10.6174 40.9503 10.5508 40.6565C10.4843 40.4028 10.3378 40.1757 10.1647 39.9888C9.85836 39.6683 9.49881 39.4546 9.29905 39.321C9.1792 39.2409 9.11262 39.1875 9.0993 39.1608C9.11262 39.1207 9.19252 39.0005 9.44554 38.7869C9.69856 38.5732 10.1247 38.2794 10.7639 37.9055C11.2966 37.5983 11.9758 37.2244 12.8414 36.797C12.868 36.797 12.8946 36.7703 12.9213 36.757C13.0411 36.7837 13.2409 36.8371 13.4406 36.9039C13.6137 36.9573 13.7869 37.0107 13.9866 37.0775C14.1864 37.1309 14.3861 37.1977 14.6391 37.2644C15.0919 37.3579 15.5713 37.3312 15.9575 37.171C16.3437 37.0107 16.5834 36.757 16.5701 36.4899C16.5701 35.5417 16.1573 34.7404 15.598 34.0727C14.7457 33.0711 13.6004 32.3633 12.828 31.6555C12.4285 31.2949 12.1222 30.9611 11.9092 30.5738C11.6961 30.1999 11.5896 29.7725 11.6295 29.2383C11.6295 29.1182 11.6029 28.998 11.523 28.8778C11.0303 28.2234 10.8971 27.756 10.9237 27.4755C10.9237 27.3286 10.977 27.2352 11.0436 27.155C11.1102 27.0749 11.1901 26.9948 11.3365 26.9146C11.5896 26.7544 12.069 26.5941 12.7348 26.4339C13.7469 26.1935 15.1452 25.9932 16.6766 25.7127C18.2081 25.4323 19.886 25.0851 21.4974 24.5242C21.7371 24.444 21.9235 24.3105 22.0434 24.1636C22.9622 22.9884 24.4271 21.8132 25.9985 20.6246C27.4633 19.5296 29.0081 18.4211 30.2998 17.2593C31.0456 17.1124 31.818 16.9121 32.5504 16.7117C33.123 16.5648 33.6957 16.4046 34.2017 16.271C34.4015 16.3512 34.6145 16.4046 34.8409 16.4447C35.4668 16.5515 36.106 16.5114 36.6254 16.4046C37.1447 16.2978 37.5975 16.1108 37.9837 15.9105C38.1435 15.817 38.2767 15.7102 38.3566 15.6033C38.3832 15.5766 38.4099 15.5499 38.4498 15.4965C38.7428 15.2027 39.382 14.5884 40.1544 13.8138C41.2996 12.652 42.7245 11.1562 43.7233 9.80743C44.2293 9.12635 44.6289 8.48533 44.8419 7.89773C44.9485 7.60392 45.0017 7.31012 44.9751 7.01632C44.9751 7.00297 44.9751 6.98962 44.9751 6.96291C45.2681 6.81601 45.5744 6.65575 45.9073 6.46879C46.4799 6.12157 47.0792 5.73428 47.5186 5.32029C47.5985 5.24016 47.6784 5.17339 47.745 5.07991C48.3709 5.0532 48.9302 4.9063 49.383 4.74605C49.929 4.55908 50.3818 4.3187 50.7813 4.07832C51.2474 3.79787 51.6602 3.53078 52.0464 3.30375C52.4326 3.07672 52.7788 2.91647 53.0185 2.83634C53.5379 2.67609 53.8175 2.32887 53.7376 1.995C53.7376 1.94158 53.7376 1.90152 53.8042 1.78133C53.9241 1.62107 54.2437 1.38069 54.6565 1.10025C54.7497 1.04683 54.8429 0.980054 54.9362 0.926636C55.1359 1.1136 55.2558 1.34063 55.2957 1.58101C55.3623 1.95494 55.2291 2.36893 54.9228 2.75621C54.6831 3.06337 54.7764 3.42394 55.1759 3.66432C55.4555 3.83793 55.6686 4.10502 55.8284 4.45224C56.0814 4.97307 56.1613 5.66751 56.3078 6.36195C56.3877 6.70917 56.4942 7.06974 56.694 7.41696C56.8937 7.77754 57.2 8.12476 57.7327 8.43191C57.7327 8.43191 57.746 8.43191 57.7593 8.44526C58.2121 8.71235 58.838 8.89932 59.5172 8.9928C60.2097 9.08628 60.9687 9.07293 61.7811 8.9928C62.0873 8.96609 62.3537 8.88597 62.5534 8.75242C62.8597 8.96609 63.2326 9.2866 63.5922 9.64718C64.3779 10.4084 65.2035 11.3699 65.896 12.1845C66.2422 12.5852 66.5751 12.9591 66.8681 13.2663C67.0146 13.4265 67.1478 13.5601 67.281 13.6803C67.4141 13.8004 67.534 13.9073 67.7604 14.0408C67.8269 14.0809 67.9335 14.1343 68.08 14.1877C68.1732 14.2144 68.293 14.2545 68.4528 14.2812C73.0339 15.4164 76.1767 16.1108 79.7323 16.685C83.3012 17.2593 87.2697 17.7133 93.5952 18.3811C93.9281 18.4078 94.6339 18.6482 95.4063 19.0221C96.5649 19.583 97.9232 20.3976 99.2416 21.1054C99.9074 21.466 100.587 21.7865 101.279 22.0536C101.652 22.1871 102.038 22.3207 102.464 22.4142C102.544 22.5878 102.624 22.748 102.731 22.9083C102.944 23.2154 103.223 23.4959 103.61 23.7229C103.996 23.9499 104.555 24.1235 105.088 24.1903C105.554 24.2437 106.007 24.2304 106.419 24.1903C107.139 24.0968 107.778 23.9099 108.377 23.7095C109.283 23.389 110.148 22.9884 110.934 22.6145C111.72 22.2405 112.452 21.8933 112.958 21.7197C114.729 21.1588 116.048 20.7849 116.953 20.5846C116.793 20.7715 116.594 20.9986 116.367 21.2256C115.781 21.8533 115.062 22.5878 114.516 23.3223C114.236 23.6962 114.01 24.0568 113.85 24.444C113.704 24.818 113.624 25.2053 113.77 25.6193C113.824 25.7929 113.97 25.9398 114.17 26.0466C114.449 26.2069 114.836 26.3003 115.262 26.287C115.515 26.287 115.781 26.2603 116.087 26.2336C117.14 26.1534 118.738 26.0065 120.149 25.9531C120.855 25.9264 121.507 25.9398 121.974 25.9798C122.133 25.9932 122.267 26.0065 122.373 26.0199C122.346 26.0466 122.32 26.0867 122.293 26.1267C122.093 26.3404 122.053 26.5941 122.213 26.8212C122.28 26.928 122.4 27.0215 122.533 27.1016" stroke="#4F00F6" stroke-width="1.5" stroke-linecap="round" stroke-linejoin="round"/>
</svg>
